# Blender v2.81 (sub 16) OBJ File: 'Book.blend'
# www.blender.org
mtllib Book.mtl
o Book_Cube
v 0.034295 0.150000 -0.150000
v 0.042628 -0.150000 -0.150000
v 0.034295 0.144936 0.141520
v 0.034295 -0.144936 0.141520
v -0.034295 0.150000 -0.150000
v -0.034295 -0.150000 -0.150000
v -0.034295 0.144936 0.141520
v -0.034295 -0.144936 0.141520
v -0.042628 -0.150000 -0.150000
v -0.042628 -0.150000 0.150000
v 0.042628 0.150000 -0.150000
v 0.034295 -0.150000 -0.150000
v -0.042628 0.150000 -0.150000
v 0.042628 0.150000 0.150000
v -0.042628 0.150000 0.150000
v 0.042628 -0.150000 0.150000
v -0.034295 -0.144936 -0.143948
v -0.034295 -0.150000 0.141520
v 0.034295 0.144936 -0.143948
v 0.034295 -0.144936 -0.143948
v -0.034295 0.144936 -0.143948
v 0.034295 0.150000 0.141520
v -0.034295 0.150000 0.141520
v 0.034295 -0.150000 0.141520
v 0.017147 -0.144936 -0.134950
v -0.000000 -0.144936 -0.132406
v -0.017147 -0.144936 -0.134950
v 0.021314 0.150000 0.158998
v 0.000000 0.150000 0.161543
v -0.021314 0.150000 0.158998
v -0.021314 -0.150000 0.158998
v 0.000000 -0.150000 0.161543
v 0.021314 -0.150000 0.158998
v -0.017147 0.144936 -0.134950
v 0.000000 0.144936 -0.132406
v 0.017147 0.144936 -0.134950
v 0.017147 0.150000 0.150519
v 0.000000 0.150000 0.153063
v -0.017147 0.150000 0.150519
v -0.017147 -0.150000 0.150519
v 0.000000 -0.150000 0.153063
v 0.017147 -0.150000 0.150519
v 0.017147 0.144936 0.150519
v 0.000000 0.144936 0.153063
v -0.017147 0.144936 0.150519
v -0.017147 -0.144936 0.150519
v 0.000000 -0.144936 0.153063
v 0.017147 -0.144936 0.150519
vt 0.344370 0.973450
vt 0.344363 0.992066
vt 0.018085 0.993245
vt 0.008330 0.974644
vt 0.476076 0.006492
vt 0.476076 0.417569
vt 0.444374 0.417569
vt 0.444374 0.006492
vt 0.033297 0.417569
vt 0.033297 0.006492
vt 0.666012 0.934823
vt 0.666019 0.916206
vt 0.992297 0.915028
vt 1.002052 0.933628
vt 0.977680 0.006492
vt 0.977680 0.417569
vt 0.566603 0.417569
vt 0.566603 0.006492
vt 0.344384 0.936028
vt 0.344391 0.917368
vt 0.532792 0.898283
vt 0.275871 0.623639
vt 0.277900 0.609619
vt 0.539465 0.892075
vt 0.989098 0.006492
vt 0.989098 0.417569
vt 0.021879 0.417569
vt 0.021879 0.006492
vt 0.216827 0.622690
vt 0.196905 0.630430
vt 0.192861 0.618883
vt 0.213597 0.614664
vt 0.532790 0.898291
vt 0.275869 0.623648
vt 0.277898 0.609628
vt 0.539463 0.892084
vt 0.216829 0.622680
vt 0.196907 0.630421
vt 0.192862 0.618874
vt 0.213599 0.614655
vt 0.028367 0.898291
vt 0.021867 0.894235
vt 0.028369 0.898282
vt 0.021868 0.894226
vt 0.524178 0.897226
vt 0.272577 0.629535
vt 0.997391 0.013431
vt 0.997391 0.410631
vt 0.013586 0.410630
vt 0.013586 0.013430
vt 0.218198 0.627486
vt 0.200385 0.634738
vt 0.524176 0.897235
vt 0.272575 0.629544
vt 0.218200 0.627477
vt 0.200387 0.634729
vt 0.035321 0.896041
vt 0.035323 0.896032
vt 0.251307 0.624521
vt 0.251861 0.619366
vt 0.234381 0.624427
vt 0.233938 0.619503
vt 0.251305 0.624530
vt 0.251859 0.619375
vt 0.234379 0.624436
vt 0.233937 0.619512
vt 0.253527 0.610160
vt 0.233139 0.611699
vt 0.253525 0.610169
vt 0.233137 0.611708
vt 0.665991 0.990904
vt 0.665998 0.972245
vt 0.344377 0.954745
vt 0.666005 0.953528
vt 1.002257 0.971049
vt 0.992722 0.989724
vt 1.004901 0.952327
vt 0.534901 0.417569
vt 0.534901 0.006492
vt 0.505489 0.417569
vt 0.505489 0.006492
vt 0.008124 0.937223
vt 0.017659 0.918548
vt 0.005481 0.955945
vn 0.0000 1.0000 0.0000
vn -0.3889 0.0000 0.9213
vn -1.0000 0.0000 0.0000
vn 0.0000 -1.0000 0.0000
vn 1.0000 0.0000 0.0000
vn -0.4647 0.0000 -0.8855
vn 0.0000 0.0000 -1.0000
vn 0.4647 -0.0000 -0.8855
vn 0.1468 0.0000 -0.9892
vn -0.1468 0.0000 -0.9892
vn 0.3889 0.0000 0.9213
vn 0.1185 0.0000 0.9930
vn -0.1185 0.0000 0.9930
usemtl Material
s off
f 34/1/1 21/2/1 7/3/1 45/4/1
f 31/5/2 30/6/2 15/7/2 10/8/2
f 10/8/3 15/7/3 13/9/3 9/10/3
f 25/11/4 20/12/4 4/13/4 48/14/4
f 2/15/5 11/16/5 14/17/5 16/18/5
f 25/11/6 36/19/6 19/20/6 20/12/6
f 6/21/4 18/22/4 10/23/4 9/24/4
f 12/25/7 1/26/7 11/16/7 2/15/7
f 5/27/7 6/28/7 9/10/7 13/9/7
f 39/29/1 23/30/1 15/31/1 30/32/1
f 1/33/1 22/34/1 14/35/1 11/36/1
f 42/37/4 24/38/4 16/39/4 33/40/4
f 23/30/1 5/41/1 13/42/1 15/31/1
f 24/38/4 12/43/4 2/44/4 16/39/4
f 17/45/5 8/46/5 18/22/5 6/21/5
f 20/47/3 19/48/3 1/26/3 12/25/3
f 21/49/5 17/50/5 6/28/5 5/27/5
f 45/51/8 7/52/8 23/30/8 39/29/8
f 19/53/3 3/54/3 22/34/3 1/33/3
f 48/55/6 4/56/6 24/38/6 42/37/6
f 7/52/5 21/57/5 5/41/5 23/30/5
f 4/56/3 20/58/3 12/43/3 24/38/3
f 8/46/8 46/59/8 40/60/8 18/22/8
f 46/59/9 47/61/9 41/62/9 40/60/9
f 47/61/10 48/55/10 42/37/10 41/62/10
f 3/54/6 43/63/6 37/64/6 22/34/6
f 43/63/10 44/65/10 38/66/10 37/64/10
f 44/65/9 45/51/9 39/29/9 38/66/9
f 18/22/4 40/60/4 31/67/4 10/23/4
f 40/60/4 41/62/4 32/68/4 31/67/4
f 41/62/4 42/37/4 33/40/4 32/68/4
f 22/34/1 37/64/1 28/69/1 14/35/1
f 37/64/1 38/66/1 29/70/1 28/69/1
f 38/66/1 39/29/1 30/32/1 29/70/1
f 17/71/8 21/2/8 34/1/8 27/72/8
f 27/72/9 34/1/9 35/73/9 26/74/9
f 26/74/10 35/73/10 36/19/10 25/11/10
f 17/71/4 27/72/4 46/75/4 8/76/4
f 27/72/4 26/74/4 47/77/4 46/75/4
f 26/74/4 25/11/4 48/14/4 47/77/4
f 16/18/11 14/17/11 28/78/11 33/79/11
f 33/79/12 28/78/12 29/80/12 32/81/12
f 32/81/13 29/80/13 30/6/13 31/5/13
f 19/20/1 36/19/1 43/82/1 3/83/1
f 36/19/1 35/73/1 44/84/1 43/82/1
f 35/73/1 34/1/1 45/4/1 44/84/1
